<?xml version="1.0" standalone="no"?>
<svg id="wave" style="transform:rotate(0deg); transition: 0.3s" viewBox="0 0 1440 490" version="1.1" xmlns="http://www.w3.org/2000/svg"><defs><linearGradient id="sw-gradient-0" x1="0" x2="0" y1="1" y2="0"><stop stop-color="rgba(22, 33, 20, 1)" offset="0%"/><stop stop-color="rgba(22, 33, 20, 1)" offset="100%"/></linearGradient></defs><path style="transform:translate(0, 0px); opacity:1" fill="url(#sw-gradient-0)" d="M0,98L18.5,89.8C36.9,82,74,65,111,98C147.7,131,185,212,222,236.8C258.5,261,295,229,332,228.7C369.2,229,406,261,443,253.2C480,245,517,196,554,163.3C590.8,131,628,114,665,138.8C701.5,163,738,229,775,236.8C812.3,245,849,196,886,220.5C923.1,245,960,343,997,351.2C1033.8,359,1071,278,1108,212.3C1144.6,147,1182,98,1218,98C1255.4,98,1292,147,1329,212.3C1366.2,278,1403,359,1440,392C1476.9,425,1514,408,1551,392C1587.7,376,1625,359,1662,302.2C1698.5,245,1735,147,1772,138.8C1809.2,131,1846,212,1883,253.2C1920,294,1957,294,1994,285.8C2030.8,278,2068,261,2105,269.5C2141.5,278,2178,310,2215,343C2252.3,376,2289,408,2326,375.7C2363.1,343,2400,245,2437,228.7C2473.8,212,2511,278,2548,285.8C2584.6,294,2622,245,2640,220.5L2658.5,196L2658.5,490L2640,490C2621.5,490,2585,490,2548,490C2510.8,490,2474,490,2437,490C2400,490,2363,490,2326,490C2289.2,490,2252,490,2215,490C2178.5,490,2142,490,2105,490C2067.7,490,2031,490,1994,490C1956.9,490,1920,490,1883,490C1846.2,490,1809,490,1772,490C1735.4,490,1698,490,1662,490C1624.6,490,1588,490,1551,490C1513.8,490,1477,490,1440,490C1403.1,490,1366,490,1329,490C1292.3,490,1255,490,1218,490C1181.5,490,1145,490,1108,490C1070.8,490,1034,490,997,490C960,490,923,490,886,490C849.2,490,812,490,775,490C738.5,490,702,490,665,490C627.7,490,591,490,554,490C516.9,490,480,490,443,490C406.2,490,369,490,332,490C295.4,490,258,490,222,490C184.6,490,148,490,111,490C73.8,490,37,490,18,490L0,490Z"/></svg>